# xmcd
#
# Track frame offsets: 
#        150
#        14808
#        28298
#        44742
#        58248
#        76511
#        92492
#        104816
#        120051
#        134943
#        152397
#        168301
#        185389
#        202085
#
# Disc length: 2881 seconds
#
# Revision: 0
# Processed by: cddbd v1.5.2PL0 Copyright (c) Steve Scherf et al.
# Submitted via: ExactAudioCopyFreeDBPlugin 1.0
#
DISCID=c20b3f0e
DTITLE=Anita and Alexandra Hofmann - 100.000 Volt
DYEAR=2015
DGENRE=Schlager
TTITLE0=100.000 Volt
TTITLE1=SOS
TTITLE2=Nicht mit Dir
TTITLE3=Vogelfrei
TTITLE4=Allein in Deiner Welt
TTITLE5=Zum Himmel und zurück
TTITLE6=Irgendwann
TTITLE7=Du hast es so gewollt
TTITLE8=Von mir aus
TTITLE9=Piraten der Nacht
TTITLE10=Unschlagbar
TTITLE11=Ohne Dich
TTITLE12=Irgendwo in mir
TTITLE13=Ich knips den Sommer wieder an
EXTD=
EXTT0=
EXTT1=
EXTT2=
EXTT3=
EXTT4=
EXTT5=
EXTT6=
EXTT7=
EXTT8=
EXTT9=
EXTT10=
EXTT11=
EXTT12=
EXTT13=
PLAYORDER=
